Simulation
nRows=19
nColumns=15
endheader
time  TH_x TH_y TH_z SC_y  SC_z  SC_x  AC_y  AC_z  AC_x  GH_y  GH_z  GH_yy  EL_x  PS_y
8.073123595505619  0.000000  0.000000  0.000000  -36.39697016787996  16.80336657933534  22.622976379836167  58.84673479078842  7.1248821475291795  10.704638347125071  -165.82555096447996  24.60116713608271  -132.11241976981177  16.79861379718209  120.000000
8.113288389513109  0.000000  0.000000  0.000000  -36.09712178125106  16.65675667187735  22.119543583717086  58.72787599856968  6.9024485550431  10.297562919676052  -166.90885261971465  23.419697111315845  -131.23022479262852  16.312221448874755  120.000000
8.153453183520599  0.000000  0.000000  0.000000  -35.79951814136424  16.510993732375397  21.65899820221322  58.560936743511064  6.752042189105029  9.926859755559503  -168.6741529042985  22.113096478677  -129.85575073306308  15.76364521716848  120.000000
8.19361797752809  0.000000  0.000000  0.000000  -35.510680717898126  16.375643906538954  21.253160612336405  58.356384240150525  6.681011905094424  9.607622396060274  -171.2242636924938  20.685974515345176  -127.8903223861087  15.173594016014086  120.000000
8.23378277153558  0.000000  0.000000  0.000000  -35.23793267960925  16.259396910837857  20.911247004919097  58.12702659491239  6.693359948625865  9.354637475947655  -174.72132822080857  19.156769472906475  -125.17634456834074  14.566957375044916  120.000000
8.273947565543072  0.000000  0.000000  0.000000  -34.98822416567807  16.169036663903274  20.641032499713617  57.88711028432047  6.790253845429705  9.183319509407577  -179.41268555977388  17.561702641258343  -121.46982347270847  13.969215748404093  120.000000
8.314112359550561  0.000000  0.000000  0.000000  -34.76723709725622  16.108583550697748  20.448936466996816  57.651698516013774  6.970043327681754  9.109119946383041  174.34614237497232  15.96322993841052  -116.41437711701563  13.403143811770496  120.000000
8.354277153558053  0.000000  0.000000  0.000000  -34.5803726412148  16.08083274956312  20.337345731064826  57.435974198519965  7.226074446793246  9.14503875619609  166.11145474406322  14.46330935363333  -109.55780318783575  12.885848296549248  120.000000
8.394441947565543  0.000000  0.000000  0.000000  -34.43350231018463  16.087715763657968  20.303037571550284  57.25344213561392  7.5456440936583045  9.298361769075083  155.47610223896916  13.213967945363544  -100.4758571417162  12.426973320286933  120.000000
8.434606741573035  0.000000  0.000000  0.000000  -34.3321181076107  16.129704145850795  20.33902540675629  57.115031327796835  7.912271847085638  9.570846212715018  142.3904294494981  12.412014515778615  -89.09456636258291  12.02928414650864  120.000000
8.474771535580524  0.000000  0.000000  0.000000  -34.27934163535666  16.206040198828177  20.43711820234424  57.03016908688408  8.309128370831944  9.96030179446735  127.62752491440477  12.254384481231755  -76.15843378879335  11.690418738691637  120.000000
8.514936329588014  0.000000  0.000000  0.000000  -34.27633695184373  16.31456738154534  20.589254317146736  57.0063240582456  8.721291030760035  10.460528741035652  112.81822170061005  12.848456678978376  -63.267651472005305  11.40502409875464  120.000000
8.555101123595506  0.000000  0.000000  0.000000  -34.32372806754387  16.45214626660012  20.788173483436715  57.04706608811187  9.136232639318422  11.061552708283907  99.57303107139852  14.152303305963432  -52.00258607253518  11.166088326549824  120.000000
8.595265917602996  0.000000  0.000000  0.000000  -34.42182631155477  16.614946015246417  21.02765634015142  57.152338387131145  9.544771188015416  11.74954015343183  88.62139452883955  16.017666387885118  -43.06579798304261  10.966320590251389  120.000000
8.635430711610487  0.000000  0.000000  0.000000  -34.56984587941457  16.798825216523056  21.302146677713385  57.31905266130751  9.940811406663046  12.508286504826104  79.87857920985137  18.274685148891308  -36.35002293236505  10.79930133123666  120.000000
8.675595505617977  0.000000  0.000000  0.000000  -34.76535827716827  16.99928268229344  21.606095370836776  57.54113170506378  10.320450520121458  13.32047168086859  72.92767427685345  20.77965433486867  -31.420577293882733  10.65999956693893  120.000000
8.715760299625469  0.000000  0.000000  0.000000  -35.004495545569526  17.21107805174087  21.933807467456873  57.810394608260154  10.681753756084778  14.168052712584466  67.33266306452329  23.423500829052852  -27.827973174507157  10.544931007152623  120.000000
8.755925093632959  0.000000  0.000000  0.000000  -35.28204541770542  17.428740987009864  22.279172716135054  58.11693850362892  11.024174876133701  15.03299698184637  62.742129640413374  26.124865977063028  -25.211068716471008  10.451692920134855  120.000000
8.79608988764045  0.000000  0.000000  0.000000  -35.59240673237323  17.646974350956803  22.63528507391551  58.44978814199423  11.347867732418987  15.897490923019715  58.896904933731136  28.821549038394604  -23.303721235932986  10.378705215098165  120.000000
